<?xml version="1.0" standalone="no"?>
<!DOCTYPE svg PUBLIC "-//W3C//DTD SVG 20010904//EN"
 "http://www.w3.org/TR/2001/REC-SVG-20010904/DTD/svg10.dtd">
<svg version="1.0" xmlns="http://www.w3.org/2000/svg"
 width="174.000000pt" height="174.000000pt" viewBox="0 0 174.000000 174.000000"
 preserveAspectRatio="xMidYMid meet">
<metadata>
Created by potrace 1.11, written by Peter Selinger 2001-2013
</metadata>
<g transform="translate(0.000000,174.000000) scale(0.100000,-0.100000)"
fill="#000000" stroke="none">
<path d="M626 1720 c-75 -23 -146 -148 -186 -327 -6 -26 -20 -56 -31 -66 -20
-19 -27 -91 -9 -102 6 -3 10 -45 10 -93 0 -90 13 -156 32 -168 6 -4 32 -6 57
-5 53 2 71 17 90 76 17 52 51 128 56 123 1 -1 -6 -50 -16 -108 -32 -175 -31
-320 3 -342 18 -11 109 -1 124 14 6 7 21 46 33 86 12 39 23 72 24 72 1 0 2
-34 2 -75 0 -99 11 -111 91 -99 l58 9 27 80 c29 86 33 103 22 91 -5 -4 -19
-42 -33 -84 -20 -62 -29 -78 -47 -80 l-21 -3 18 60 c32 100 82 187 101 175 5
-2 4 -16 -1 -30 -6 -14 -8 -30 -5 -34 5 -8 -6 -123 -20 -210 -2 -14 -7 -47
-11 -73 -5 -35 -19 -65 -52 -110 -141 -191 -202 -349 -166 -435 15 -37 46 -52
109 -52 77 0 121 54 180 223 30 83 54 110 112 126 49 14 114 71 145 127 48 88
46 164 -4 214 -26 26 -37 30 -87 30 l-57 0 8 93 c5 50 12 113 17 140 5 26 5
47 1 47 -8 0 -30 -161 -30 -221 0 -44 -21 -89 -42 -89 -11 0 -4 192 7 210 3 5
8 39 11 77 5 57 3 72 -11 86 -9 9 -12 17 -6 17 6 0 11 4 11 9 0 13 -109 -25
-132 -46 -17 -15 -18 -15 -18 9 0 26 -31 47 -60 43 -45 -7 -100 -27 -122 -44
l-24 -19 18 96 c22 121 22 166 3 182 -21 18 -112 7 -164 -19 -22 -12 -41 -17
-41 -13 0 16 46 76 102 133 56 57 98 140 98 195 0 37 -25 91 -48 103 -24 13
-85 13 -126 1z m135 -26 c19 -20 24 -36 24 -77 0 -69 -32 -131 -106 -204 -36
-36 -71 -85 -95 -132 -26 -51 -40 -70 -42 -57 -8 37 29 104 95 172 72 76 113
149 113 206 0 45 -15 87 -38 104 -16 12 -15 13 4 14 11 0 31 -12 45 -26z
m-121 -99 c-5 -43 -35 -116 -55 -135 l-25 -24 9 30 c49 150 48 147 63 142 5
-2 9 -8 8 -13z m0 -72 c-11 -17 -11 -17 -6 0 3 10 7 26 7 35 1 15 2 15 6 0 2
-10 -1 -25 -7 -35z m163 -225 c17 -26 -19 -231 -50 -296 -15 -28 -27 -51 -29
-49 -1 1 6 45 16 97 28 141 35 236 19 256 -11 14 -10 15 10 12 13 -1 29 -10
34 -20z m-153 -102 c0 -2 -11 -24 -25 -48 -14 -25 -34 -71 -45 -104 -18 -52
-33 -73 -52 -74 -18 0 46 157 83 204 18 22 39 34 39 22z m330 -144 c0 -15 -7
-38 -16 -50 -8 -12 -22 -35 -30 -50 -15 -27 -15 -27 -8 13 12 68 12 79 -2 102
-12 19 -11 22 4 26 29 6 52 -12 52 -41z m-178 -175 c-12 -29 -23 -63 -27 -77
-15 -58 -28 -80 -47 -80 -13 0 -18 5 -15 14 3 8 11 33 17 56 15 57 48 132 68
154 15 17 17 17 20 1 2 -9 -5 -40 -16 -68z m523 -201 c26 -35 24 -112 -5 -171
-27 -57 -98 -120 -150 -136 -56 -17 -93 -58 -114 -127 -37 -119 -104 -221
-145 -222 -10 0 -7 9 10 28 40 43 58 77 95 175 36 99 60 127 123 146 140 41
226 264 132 339 -13 10 -12 11 9 3 13 -4 34 -20 45 -35z m-170 -62 c-27 -40
-31 -50 -40 -116 -4 -29 -12 -49 -22 -52 -9 -4 -17 -5 -18 -4 -1 2 4 37 11 78
11 62 18 80 44 103 42 38 54 34 25 -9z m48 -23 c-7 -40 -32 -86 -60 -112 l-25
-24 6 33 c3 17 9 46 12 62 7 39 54 96 65 79 4 -7 5 -24 2 -38z m-268 -273
c-35 -96 -54 -157 -60 -187 -5 -31 -13 -37 -26 -24 -12 12 2 92 25 143 29 65
78 152 82 147 3 -3 -7 -38 -21 -79z"/>
<path d="M1150 1100 c0 -6 9 -10 20 -10 11 0 20 -6 21 -12 3 -46 19 -77 19
-37 0 14 -6 32 -12 41 -16 19 -48 31 -48 18z"/>
</g>
</svg>
